<svg width="143" height="43" viewBox="0 0 143 43" fill="none" xmlns="http://www.w3.org/2000/svg">
<path d="M131.226 42.988C129.437 42.988 127.779 42.6947 126.254 42.108C124.729 41.5213 123.409 40.7 122.294 39.644C121.209 38.6173 120.417 37.4 119.918 35.992L125.286 33.968C125.638 35.0827 126.327 35.9773 127.354 36.652C128.41 37.356 129.701 37.708 131.226 37.708C132.399 37.708 133.426 37.488 134.306 37.048C135.215 36.608 135.919 35.9627 136.418 35.112C136.917 34.2907 137.166 33.2933 137.166 32.12V26.664L138.266 27.984C137.445 29.4213 136.345 30.5067 134.966 31.24C133.587 31.9733 132.018 32.34 130.258 32.34C128.029 32.34 126.034 31.8267 124.274 30.8C122.514 29.7733 121.135 28.3653 120.138 26.576C119.141 24.7867 118.642 22.7773 118.642 20.548C118.642 18.2893 119.141 16.28 120.138 14.52C121.135 12.76 122.499 11.3813 124.23 10.384C125.961 9.35733 127.926 8.84399 130.126 8.84399C131.915 8.84399 133.485 9.22533 134.834 9.988C136.213 10.7213 137.357 11.792 138.266 13.2L137.474 14.652V9.372H142.93V32.12C142.93 34.2027 142.417 36.0653 141.39 37.708C140.393 39.3507 139.014 40.6413 137.254 41.58C135.523 42.5187 133.514 42.988 131.226 42.988ZM130.962 27.016C132.194 27.016 133.265 26.752 134.174 26.224C135.113 25.6667 135.846 24.904 136.374 23.936C136.902 22.968 137.166 21.8533 137.166 20.592C137.166 19.36 136.887 18.26 136.33 17.292C135.802 16.2947 135.069 15.5173 134.13 14.96C133.221 14.4027 132.165 14.124 130.962 14.124C129.759 14.124 128.674 14.4027 127.706 14.96C126.738 15.5173 125.975 16.2947 125.418 17.292C124.89 18.26 124.626 19.36 124.626 20.592C124.626 21.824 124.89 22.924 125.418 23.892C125.975 24.86 126.723 25.6227 127.662 26.18C128.63 26.7373 129.73 27.016 130.962 27.016Z" fill="#C831FF"/>
<path d="M103.491 33.836C101.144 33.836 99.0026 33.2933 97.0666 32.208C95.1599 31.1227 93.6346 29.6413 92.4906 27.764C91.3759 25.8867 90.8186 23.7453 90.8186 21.34C90.8186 18.9347 91.3759 16.7933 92.4906 14.916C93.6346 13.0387 95.1599 11.5573 97.0666 10.472C98.9733 9.38666 101.115 8.84399 103.491 8.84399C105.837 8.84399 107.964 9.38666 109.871 10.472C111.777 11.5573 113.288 13.0387 114.403 14.916C115.547 16.764 116.119 18.9053 116.119 21.34C116.119 23.7453 115.547 25.8867 114.403 27.764C113.259 29.6413 111.733 31.1227 109.827 32.208C107.92 33.2933 105.808 33.836 103.491 33.836ZM103.491 28.556C104.781 28.556 105.911 28.248 106.879 27.632C107.876 27.016 108.653 26.1653 109.211 25.08C109.797 23.9653 110.091 22.7187 110.091 21.34C110.091 19.932 109.797 18.7 109.211 17.644C108.653 16.5587 107.876 15.708 106.879 15.092C105.911 14.4467 104.781 14.124 103.491 14.124C102.171 14.124 101.012 14.4467 100.015 15.092C99.0173 15.708 98.2253 16.5587 97.6386 17.644C97.0813 18.7 96.8026 19.932 96.8026 21.34C96.8026 22.7187 97.0813 23.9653 97.6386 25.08C98.2253 26.1653 99.0173 27.016 100.015 27.632C101.012 28.248 102.171 28.556 103.491 28.556Z" fill="#C831FF"/>
<path d="M81.5808 33.308V0H87.3448V33.308H81.5808Z" fill="#C831FF"/>
<path d="M75.1971 33.572C72.4984 33.572 70.4011 32.8387 68.9051 31.372C67.4384 29.876 66.7051 27.7787 66.7051 25.08V14.52H62.5691V9.372H63.0091C64.1824 9.372 65.0918 9.064 65.7371 8.448C66.3824 7.832 66.7051 6.93733 66.7051 5.764V3.916H72.4691V9.372H77.9691V14.52H72.4691V24.772C72.4691 25.564 72.6011 26.2387 72.8651 26.796C73.1584 27.3533 73.5984 27.7787 74.1851 28.072C74.8011 28.3653 75.5784 28.512 76.5171 28.512C76.7224 28.512 76.9571 28.4973 77.2211 28.468C77.5144 28.4387 77.7931 28.4093 78.0571 28.38V33.308C77.6464 33.3667 77.1771 33.4253 76.6491 33.484C76.1211 33.5427 75.6371 33.572 75.1971 33.572Z" fill="#C831FF"/>
<path d="M51.6713 33.836C49.1193 33.836 46.89 33.2347 44.9833 32.032C43.106 30.8 41.8153 29.1427 41.1113 27.06L45.4233 24.992C46.0393 26.3413 46.89 27.3973 47.9753 28.16C49.09 28.9227 50.322 29.304 51.6713 29.304C52.7273 29.304 53.5633 29.0693 54.1793 28.6C54.7953 28.1307 55.1033 27.5147 55.1033 26.752C55.1033 26.2827 54.9713 25.9013 54.7073 25.608C54.4727 25.2853 54.1353 25.0213 53.6953 24.816C53.2847 24.5813 52.83 24.3907 52.3313 24.244L48.4153 23.144C46.3913 22.5573 44.8513 21.6627 43.7953 20.46C42.7687 19.2573 42.2553 17.8347 42.2553 16.192C42.2553 14.7253 42.622 13.4493 43.3553 12.364C44.118 11.2493 45.1593 10.384 46.4793 9.768C47.8287 9.152 49.3687 8.84399 51.0993 8.84399C53.358 8.84399 55.3527 9.38666 57.0833 10.472C58.814 11.5573 60.046 13.0827 60.7793 15.048L56.3793 17.116C55.9687 16.0307 55.2793 15.1653 54.3113 14.52C53.3433 13.8747 52.258 13.552 51.0553 13.552C50.0873 13.552 49.3247 13.772 48.7673 14.212C48.21 14.652 47.9313 15.224 47.9313 15.928C47.9313 16.368 48.0487 16.7493 48.2833 17.072C48.518 17.3947 48.8407 17.6587 49.2513 17.864C49.6913 18.0693 50.19 18.26 50.7473 18.436L54.5753 19.58C56.5407 20.1667 58.0513 21.0467 59.1073 22.22C60.1927 23.3933 60.7353 24.8307 60.7353 26.532C60.7353 27.9693 60.354 29.2453 59.5913 30.36C58.8287 31.4453 57.7727 32.296 56.4233 32.912C55.074 33.528 53.49 33.836 51.6713 33.836Z" fill="#C831FF"/>
<path d="M25.8974 33.836C24.0494 33.836 22.4361 33.4253 21.0574 32.604C19.7081 31.7827 18.6668 30.6387 17.9334 29.172C17.2294 27.7053 16.8774 25.9893 16.8774 24.024V9.37199H22.6414V23.54C22.6414 24.5373 22.8321 25.4173 23.2134 26.18C23.6241 26.9133 24.1961 27.5 24.9294 27.94C25.6921 28.3507 26.5428 28.556 27.4814 28.556C28.4201 28.556 29.2561 28.3507 29.9894 27.94C30.7228 27.5 31.2948 26.8987 31.7054 26.136C32.1161 25.3733 32.3214 24.464 32.3214 23.408V9.37199H38.0854V33.308H32.6294V28.6L33.1134 29.436C32.5561 30.9027 31.6321 32.0027 30.3414 32.736C29.0801 33.4693 27.5988 33.836 25.8974 33.836Z" fill="#C831FF"/>
<path d="M0 33.308V27.808H1.892C3.3 27.808 4.41467 27.412 5.236 26.62C6.08667 25.7987 6.512 24.7133 6.512 23.364V0.528H12.54V23.144C12.54 25.168 12.1 26.9427 11.22 28.468C10.3693 29.9933 9.13733 31.1813 7.524 32.032C5.94 32.8827 4.06267 33.308 1.892 33.308H0Z" fill="#C831FF"/>
</svg>
